<mxfile host="app.diagrams.net" modified="2023-10-08T22:33:48.521Z" agent="Mozilla/5.0 (Macintosh; Intel Mac OS X 10_15_7) AppleWebKit/537.36 (KHTML, like Gecko) Chrome/117.0.0.0 Safari/537.36" version="22.0.0" etag="pxzltH_E2aYNZWOpGkEJ" type="github">
  <diagram name="Page-1" id="3C8R7_eqE_qJSNN0M0Vh">
    <mxGraphModel>
      <root>
        <mxCell id="0" />
        <mxCell id="1" parent="0" />
      </root>
    </mxGraphModel>
  </diagram>
</mxfile>
